<?xml version="1.0" standalone="no"?>
<!DOCTYPE svg PUBLIC "-//W3C//DTD SVG 20010904//EN"
 "http://www.w3.org/TR/2001/REC-SVG-20010904/DTD/svg10.dtd">
<svg version="1.0" xmlns="http://www.w3.org/2000/svg"
 width="512.000000pt" height="512.000000pt" viewBox="0 0 512.000000 512.000000"
 preserveAspectRatio="xMidYMid meet">

<g transform="translate(0.000000,512.000000) scale(0.100000,-0.100000)"
fill="#000000" stroke="none">
<path d="M120 5035 l-24 -25 22 -22 22 -22 27 26 c26 27 26 28 8 48 -23 26
-27 25 -55 -5z"/>
<path d="M245 5040 c-18 -20 -18 -21 8 -48 l27 -26 22 22 22 22 -24 25 c-28
30 -32 31 -55 5z"/>
<path d="M4822 5037 l-22 -23 23 -22 23 -22 24 25 c23 24 23 25 5 45 -23 25
-27 25 -53 -3z"/>
<path d="M4945 5040 c-18 -20 -18 -21 8 -48 l27 -26 22 22 22 22 -24 25 c-28
30 -32 31 -55 5z"/>
<path d="M115 4910 c-18 -20 -18 -21 8 -48 l27 -26 22 22 22 22 -24 25 c-28
30 -32 31 -55 5z"/>
<path d="M250 4905 l-24 -25 22 -22 22 -22 27 26 c26 27 26 28 8 48 -23 26
-27 25 -55 -5z"/>
<path d="M4815 4910 c-18 -20 -18 -21 8 -47 l26 -27 26 24 25 24 -22 23 c-26
28 -40 29 -63 3z"/>
<path d="M4952 4907 l-22 -23 23 -22 23 -22 24 25 c23 24 23 25 5 45 -23 25
-27 25 -53 -3z"/>
<path d="M1290 4893 c-103 -53 -108 -207 -8 -259 42 -22 108 -21 146 2 37 21
72 81 72 123 0 109 -116 183 -210 134z m108 -79 c47 -33 16 -124 -43 -124 -30
0 -75 41 -75 68 0 11 9 31 21 46 24 30 63 34 97 10z"/>
<path d="M2335 4836 c-379 -73 -646 -289 -735 -596 -18 -59 -23 -111 -27 -247
l-5 -171 -43 -6 c-65 -10 -128 -55 -155 -111 -22 -45 -22 -55 -18 -204 4 -105
10 -167 20 -191 23 -54 87 -106 144 -118 52 -10 237 -2 250 11 9 8 -12 576
-22 601 -4 10 -22 16 -52 18 l-46 3 3 145 c3 179 19 261 71 366 46 94 143 205
232 265 249 170 606 222 921 135 244 -67 437 -214 528 -402 52 -107 67 -188
70 -364 l2 -145 -46 -3 c-29 -2 -47 -8 -51 -18 -3 -9 -11 -146 -18 -305 -13
-321 -15 -309 50 -309 l33 0 -19 -27 c-38 -54 -96 -103 -148 -128 -29 -14 -55
-25 -57 -25 -3 0 3 22 14 50 37 99 69 463 69 801 0 153 -4 200 -20 263 -32
126 -74 201 -165 292 -68 68 -97 89 -176 127 -140 67 -207 82 -379 82 -171 0
-239 -15 -375 -80 -156 -75 -272 -202 -332 -366 l-28 -74 0 -295 c1 -432 27
-680 85 -796 16 -34 59 -93 95 -132 l65 -70 0 -116 0 -116 -88 0 c-335 0 -626
-182 -766 -481 -69 -146 -70 -151 -74 -601 l-3 -408 35 0 36 0 0 323 c0 364 8
458 44 572 36 113 88 197 181 291 91 92 182 150 300 190 71 25 98 28 248 32
l167 4 0 104 c0 57 2 104 5 104 3 0 30 -20 61 -45 222 -181 476 -175 707 17
l47 40 0 -110 0 -110 168 -4 c149 -4 176 -7 247 -32 44 -15 112 -46 150 -68
87 -51 217 -181 268 -268 48 -83 86 -204 95 -300 l7 -75 39 -3 39 -3 -6 83
c-22 309 -256 604 -557 702 -102 34 -177 46 -282 46 l-88 0 0 118 0 118 48 45
c36 35 66 52 127 73 44 15 99 38 121 52 45 26 136 120 160 165 8 16 21 29 29
29 55 0 121 25 161 62 61 56 68 86 69 279 0 165 0 166 -28 206 -32 46 -86 79
-144 89 l-40 6 -6 172 c-4 133 -10 188 -27 246 -46 161 -157 317 -295 416 -88
62 -232 128 -350 160 -88 23 -122 27 -285 30 -126 2 -207 -1 -255 -10z m141
-873 c94 -62 213 -114 306 -134 29 -7 99 -9 162 -7 90 4 127 11 194 35 l82 30
0 -106 c0 -139 -17 -395 -35 -546 -12 -93 -22 -134 -46 -183 -37 -75 -40 -77
-209 -102 -117 -18 -126 -18 -135 -2 -56 94 -157 122 -242 67 -89 -59 -83
-205 12 -260 83 -49 188 -16 225 71 7 18 22 23 100 33 51 6 94 10 97 8 2 -2
-35 -41 -82 -85 -116 -110 -204 -154 -319 -160 -178 -9 -286 51 -491 277 -145
160 -161 215 -186 653 l-12 207 81 86 c97 102 174 222 197 309 l17 64 97 -97
c54 -54 136 -124 187 -158z m-790 -453 c5 -129 9 -237 6 -240 -2 -3 -36 -6
-76 -8 -55 -3 -83 0 -109 13 -61 29 -70 53 -79 213 -7 124 -6 148 8 179 23 48
57 67 134 74 117 11 104 37 116 -231z m1948 211 c56 -32 66 -69 60 -221 -8
-176 -26 -215 -109 -236 -25 -6 -27 -5 -20 17 4 13 18 34 32 45 32 27 42 78
43 210 0 126 -10 144 -87 151 l-51 5 -6 -43 c-4 -24 -8 -117 -10 -207 -2 -90
-7 -167 -12 -172 -5 -5 -20 -7 -32 -3 -19 4 -22 11 -18 32 3 14 8 118 12 231
3 113 8 208 10 212 8 12 159 -4 188 -21z m-931 -783 c26 -31 22 -82 -9 -107
-71 -56 -156 20 -113 100 22 42 89 46 122 7z"/>
<path d="M1523 3680 c-39 -16 -46 -44 -40 -179 2 -69 8 -134 12 -145 11 -26
56 -42 104 -38 l41 4 -5 142 c-3 77 -8 160 -11 184 -5 41 -6 42 -42 41 -20 0
-47 -4 -59 -9z"/>
<path d="M3790 4670 l0 -40 410 0 410 0 0 40 0 40 -410 0 -410 0 0 -40z"/>
<path d="M3790 4490 l0 -40 410 0 410 0 0 40 0 40 -410 0 -410 0 0 -40z"/>
<path d="M300 4310 l0 -40 410 0 410 0 0 40 0 40 -410 0 -410 0 0 -40z"/>
<path d="M3790 4310 l0 -40 205 0 205 0 0 40 0 40 -205 0 -205 0 0 -40z"/>
<path d="M300 4130 l0 -40 410 0 410 0 0 40 0 40 -410 0 -410 0 0 -40z"/>
<path d="M300 3950 l0 -40 205 0 205 0 0 40 0 40 -205 0 -205 0 0 -40z"/>
<path d="M4739 3837 c-121 -81 -65 -267 82 -267 42 0 102 35 123 71 22 37 23
107 1 148 -36 70 -138 94 -206 48z m126 -72 c47 -46 19 -115 -47 -115 -67 0
-94 78 -42 119 35 27 59 26 89 -4z"/>
<path d="M4097 3522 l-27 -28 23 -22 23 -22 27 28 27 28 -23 22 -23 22 -27
-28z"/>
<path d="M4222 3527 l-22 -23 28 -27 28 -27 22 23 22 23 -28 27 -28 27 -22
-23z"/>
<path d="M621 3474 c-144 -38 -290 -160 -354 -294 -19 -41 -41 -103 -48 -138
-16 -86 -7 -222 21 -295 l22 -58 -66 -159 c-37 -88 -69 -165 -72 -173 -4 -11
43 -4 191 30 l197 45 50 -21 c202 -84 451 -31 608 129 215 218 213 570 -4 785
-117 116 -238 166 -402 164 -49 0 -113 -7 -143 -15z m257 -69 c122 -29 233
-108 301 -214 113 -176 94 -421 -45 -580 -129 -148 -362 -202 -547 -127 l-67
27 -133 -29 c-72 -17 -133 -29 -135 -27 -2 1 18 54 43 116 50 119 49 118 14
214 -30 81 -30 215 0 299 85 240 329 378 569 321z"/>
<path d="M663 3335 c-82 -23 -132 -52 -193 -114 -242 -242 -110 -649 231 -712
179 -33 369 71 450 246 101 215 -8 481 -234 567 -68 26 -186 32 -254 13z m205
-107 c50 -34 92 -114 92 -177 0 -65 -32 -124 -88 -160 -69 -45 -72 -48 -72
-87 l0 -35 -42 3 -43 3 1 46 c0 58 22 92 83 129 69 43 88 98 57 159 -38 73
-136 82 -188 17 -10 -11 -18 -31 -18 -43 0 -20 -5 -23 -45 -23 -41 0 -45 2
-45 24 0 136 187 223 308 144z m-58 -568 l0 -40 -45 0 -45 0 0 40 0 40 45 0
45 0 0 -40z"/>
<path d="M4092 3397 l-22 -23 28 -27 28 -27 22 23 22 23 -28 27 -28 27 -22
-23z"/>
<path d="M4227 3392 l-27 -28 23 -22 23 -22 27 28 27 28 -23 22 -23 22 -27
-28z"/>
<path d="M4305 3236 c-153 -35 -272 -113 -355 -232 -27 -38 -38 -44 -213 -109
-102 -38 -183 -73 -181 -77 3 -4 72 -53 154 -109 120 -82 150 -107 150 -125 0
-36 44 -147 79 -203 46 -71 149 -164 223 -200 295 -145 651 -6 772 301 55 138
47 316 -20 452 -108 221 -378 355 -609 302z m207 -77 c194 -40 346 -203 379
-407 38 -234 -122 -476 -356 -537 -256 -66 -530 96 -591 350 -9 39 -18 75 -20
82 -2 7 -48 42 -104 79 -55 37 -100 70 -100 74 0 4 58 28 129 55 118 43 130
50 149 84 30 53 129 144 190 175 104 53 214 68 324 45z"/>
<path d="M2405 2158 c-2 -7 -45 -348 -94 -758 -50 -410 -93 -765 -96 -790 l-6
-45 170 -150 c93 -82 174 -151 179 -153 16 -5 352 298 352 317 0 9 -43 366
-95 794 -52 427 -95 781 -95 787 0 16 -309 14 -315 -2z m250 -110 c10 -74 175
-1432 175 -1443 0 -9 -56 -60 -232 -213 l-38 -34 -128 113 c-70 62 -130 115
-135 119 -7 6 169 1475 179 1492 3 4 43 8 89 8 l84 0 6 -42z"/>
<path d="M2540 1993 c0 -3 -34 -312 -75 -686 -65 -584 -73 -681 -61 -691 8 -6
46 -37 85 -70 63 -52 73 -57 89 -45 52 41 147 123 150 129 3 7 -132 1259 -144
1333 -4 28 -10 37 -25 37 -10 0 -19 -3 -19 -7z"/>
<path d="M157 2122 l-27 -28 23 -22 23 -22 27 28 27 28 -23 22 -23 22 -27 -28z"/>
<path d="M282 2127 l-22 -23 28 -27 28 -27 22 23 22 23 -28 27 -28 27 -22 -23z"/>
<path d="M152 1997 l-22 -23 28 -27 28 -27 22 23 22 23 -28 27 -28 27 -22 -23z"/>
<path d="M287 1992 l-27 -28 23 -22 23 -22 27 28 27 28 -23 22 -23 22 -27 -28z"/>
<path d="M4890 1800 c-66 -16 -123 -107 -106 -172 20 -76 97 -128 171 -114 48
9 105 62 114 106 24 113 -68 205 -179 180z m85 -95 c14 -13 25 -34 25 -46 0
-32 -38 -69 -72 -69 -61 0 -91 78 -46 120 29 27 64 25 93 -5z"/>
<path d="M576 1691 c-50 -33 -69 -74 -64 -136 3 -40 11 -62 29 -81 52 -55 116
-68 178 -36 100 50 106 186 12 249 -43 29 -114 31 -155 4z m118 -72 c50 -40
25 -119 -38 -119 -37 0 -49 7 -65 37 -17 33 -14 51 14 78 30 30 54 31 89 4z"/>
<path d="M3800 1632 l0 -79 -42 -17 -43 -16 -55 55 -55 55 -102 -102 -103
-103 56 -56 55 -56 -17 -41 -16 -42 -79 0 -79 0 0 -145 0 -144 81 -3 81 -3 16
-38 15 -39 -57 -57 -56 -56 98 -98 c53 -53 102 -97 107 -97 5 0 33 23 61 51
l51 51 42 -13 41 -12 0 -84 0 -83 145 0 145 0 0 83 0 84 41 12 42 13 54 -53
53 -54 102 103 103 102 -54 54 -54 54 15 39 16 38 81 3 81 3 0 144 0 145 -78
0 -79 0 -18 40 -18 41 51 52 c29 29 52 57 52 62 0 5 -44 54 -97 107 l-98 98
-57 -57 -57 -56 -41 18 -40 18 0 79 0 78 -145 0 -145 0 0 -78z m210 -70 l0
-69 43 -13 c23 -7 63 -23 88 -36 l46 -23 49 50 48 49 43 -42 c24 -23 43 -47
43 -52 0 -6 -20 -31 -45 -56 l-46 -46 25 -45 c13 -24 29 -63 36 -86 l11 -43
69 0 70 0 0 -65 0 -65 -69 0 -69 0 -17 -52 c-10 -29 -27 -68 -38 -86 l-20 -34
49 -49 48 -49 -47 -47 -47 -47 -49 48 -48 48 -44 -23 c-24 -12 -62 -28 -84
-34 l-40 -12 -3 -72 -3 -71 -64 0 -64 0 -3 71 -3 71 -55 17 c-30 10 -68 26
-83 36 l-28 18 -47 -46 c-26 -26 -52 -47 -57 -47 -13 0 -85 72 -85 84 0 6 21
31 46 57 l46 47 -25 43 c-14 24 -30 63 -37 87 l-11 42 -69 0 -70 0 0 65 0 65
69 0 70 0 15 53 c9 28 25 68 35 87 l20 35 -50 50 -49 51 48 47 48 47 48 -49
49 -50 56 28 c31 16 71 32 89 36 l32 7 0 69 0 69 65 0 65 0 0 -68z"/>
<path d="M3865 1266 c-163 -72 -146 -316 24 -367 120 -36 251 61 251 186 0 74
-57 159 -123 184 -38 15 -115 13 -152 -3z m119 -70 c78 -33 102 -126 48 -184
-16 -17 -41 -34 -56 -38 -115 -28 -194 101 -116 190 27 30 40 37 83 45 4 0 22
-5 41 -13z"/>
<path d="M4797 742 l-27 -28 23 -22 23 -22 27 28 27 28 -23 22 -23 22 -27 -28z"/>
<path d="M4922 747 l-22 -23 28 -27 28 -27 22 23 22 23 -28 27 -28 27 -22 -23z"/>
<path d="M4792 617 l-22 -23 28 -27 28 -27 22 23 22 23 -28 27 -28 27 -22 -23z"/>
<path d="M4927 612 l-27 -28 23 -22 23 -22 27 28 27 28 -23 22 -23 22 -27 -28z"/>
<path d="M190 335 l-24 -25 22 -22 22 -22 27 26 c26 27 26 28 8 48 -23 26 -27
25 -55 -5z"/>
<path d="M315 340 c-18 -20 -18 -21 8 -48 l27 -26 22 22 22 22 -24 25 c-28 30
-32 31 -55 5z"/>
<path d="M185 210 c-18 -20 -18 -21 8 -48 l27 -26 22 22 22 22 -24 25 c-28 30
-32 31 -55 5z"/>
<path d="M320 205 l-24 -25 22 -22 22 -22 27 26 c26 27 26 28 8 48 -23 26 -27
25 -55 -5z"/>
</g>
</svg>
